<?xml version="1.0" encoding="UTF-8"?>
<svg width="33px" height="33px" viewBox="0 0 33 33" version="1.1" xmlns="http://www.w3.org/2000/svg" xmlns:xlink="http://www.w3.org/1999/xlink">
    <!-- Generator: Sketch 40.3 (33839) - http://www.bohemiancoding.com/sketch -->
    <title>icn_arkiv</title>
    <desc>Created with Sketch.</desc>
    <defs></defs>
    <g id="Page-1" stroke="none" stroke-width="1" fill="none" fill-rule="evenodd">
        <g id="LandingPage" transform="translate(-739.000000, -24.000000)">
            <g id="nav">
                <g id="nav_links" transform="translate(485.000000, 23.000000)">
                    <g id="arkiv" transform="translate(254.000000, 1.000000)">
                        <g id="icn_arkiv">
                            <path d="M4.95513752,19.8660385 L16.6108848,20.0814933 L16.6779936,16.7931597 C13.6616275,16.7260509 5.02224637,16.6518779 5.02224637,16.6518779 C4.59529126,16.6293264 4.17810875,16.7848812 3.87014803,17.0814608 C3.56218731,17.3780403 3.39104042,17.7890723 3.39750584,18.2165737 C3.40826602,19.0880017 4.08575302,19.8054313 4.95513752,19.8660385 Z" id="Shape" fill="#7AC2BB"></path>
                            <path d="M20.5243902,16.5847691 L20.2171024,30.8012487 C20.2271421,31.937595 21.1234452,32.8680133 22.2586242,32.9204755 C23.3914821,32.9217097 24.3249849,32.0317704 24.3778509,30.900146 C24.3778509,30.900146 24.6710106,17.5490173 24.6816068,16.7719674 C24.6922029,15.9949176 24.9924267,13.8403704 22.2091755,10.9405618 C19.4259244,8.04075311 17.3702744,8.20675921 16.5155196,8.18909899 L14.647068,8.1502465 C14.647068,8.1502465 20.6515439,10.6509341 20.5243902,16.5847691 Z" id="Shape" fill="#9BD1CE"></path>
                            <path d="M2.32376427,12.1237967 L18.5711696,12.4770012 C17.0347302,10.3577744 14.491658,8.14318241 11.0408504,8.06900947 L2.41559743,7.88181111 C1.8514361,7.85139058 1.29996213,8.05653137 0.892833916,8.44825836 C0.485705699,8.83998534 0.259461372,9.38314258 0.268114297,9.94805721 C0.283640245,11.0973723 1.17717973,12.0431117 2.32376427,12.1237967 L2.32376427,12.1237967 Z" id="Shape" fill="#7AC2BB"></path>
                            <path d="M4.95513752,26.1954625 L16.6108848,26.4109172 L16.6779936,23.1225837 C13.6616275,23.0554748 5.02224637,22.9813019 5.02224637,22.9813019 C4.59529126,22.9587504 4.17810875,23.1143052 3.87014803,23.4108847 C3.56218731,23.7074643 3.39104042,24.1184963 3.39750584,24.5459977 C3.40826602,25.4174257 4.08575302,26.1348553 4.95513752,26.1954625 Z" id="Shape" fill="#7AC2BB"></path>
                            <path d="M28.1712669,8.95555267 L27.863979,23.1720323 C27.8740188,24.3083786 28.7703218,25.2387969 29.9055008,25.2912591 C31.0383588,25.2924933 31.9718615,24.402554 32.0247276,23.2709296 C32.0247276,23.2709296 32.3178873,9.91980086 32.3284834,9.14275104 C32.3390795,8.36570122 32.6393033,6.211154 29.8560522,3.31134536 C27.072801,0.411536715 24.9924267,0.577542813 24.1376719,0.55988259 L22.2656882,0.517498054 C22.2656882,0.517498054 28.2842923,3.0217177 28.1712669,8.95555267 Z" id="Shape" fill="#9BD1CE"></path>
                            <path d="M9.95298067,4.49104826 L26.200386,4.84425272 C24.6639465,2.72502595 22.1244065,0.513966009 18.6735989,0.439793072 L10.0448138,0.252594707 C9.4806525,0.222174182 8.92917853,0.427314973 8.52205031,0.819041958 C8.1149221,1.21076894 7.88867777,1.75392618 7.8973307,2.31884081 C7.91467441,3.4667916 8.80772912,4.41048343 9.95298067,4.49104826 Z" id="Shape" fill="#7AC2BB"></path>
                        </g>
                    </g>
                </g>
            </g>
        </g>
    </g>
</svg>