<svg id="bg_grey_delmål" xmlns="http://www.w3.org/2000/svg" viewBox="0 0 512 142.09"><defs><style>.cls-1{fill:#4f5758;}.cls-2,.cls-3{fill:#eef2f2;}.cls-2{opacity:0.2;}.cls-3{opacity:0.1;}</style></defs><title>bg_grey_delmål</title><rect class="cls-1" width="512" height="142"/><path class="cls-2" d="M430.41,41.74,402.54,0H376.47c10.54,15.79,33.89,50.8,35.6,53.32,2.21,3.26,7.41,13.4,27.85,17.48S468.77,68,472.5,65.52l8.08-5.39C480.49,60.15,447.52,67.37,430.41,41.74Z"/><path class="cls-3" d="M512,12.65,450.94,53.41c12.85,4.45,30.25,6.3,45.16-3.65L512,39.15Z"/><path class="cls-2" d="M465.31,142.09a42.47,42.47,0,1,0-71.12,0Zm-56.15-27.31a21,21,0,1,1,16.48,24.69A21,21,0,0,1,409.16,114.78Z"/></svg>