<svg id="bg_grey_delmål" xmlns="http://www.w3.org/2000/svg" viewBox="0 0 512 142"><defs><style>.cls-1{fill:#7ac2bb;}.cls-2,.cls-5{opacity:0.25;}.cls-3,.cls-4,.cls-5{fill:#eef2f2;}.cls-4{opacity:0.5;}</style></defs><title>bg_green_datum</title><rect class="cls-1" width="512" height="142"/><g class="cls-2"><path class="cls-3" d="M151.1,138.63l-7-49.3a.62.62,0,0,0-.7-.52h0a.61.61,0,0,0-.31.13c-1.32,1.09-9.62,8.58-12.41,11.11a.61.61,0,0,1-1-.37l-1.94-13.6a.61.61,0,0,1,.18-.53c1.9-1.79,12.27-11.06,13.89-12.34a.6.6,0,0,1,.29-.12l7-1a10,10,0,0,1,11.34,8.51l6.84,47.9A8.37,8.37,0,0,1,160.1,138l-8.3,1.18A.62.62,0,0,1,151.1,138.63Z"/><path class="cls-4" d="M155.19,37.23,54,51.66c8-14.38,22.19-30.11,43.67-33.17l53.7-7.66c8-1.15,13.93,4.13,14.94,11.28S161.64,36.31,155.19,37.23Z"/></g><path class="cls-5" d="M190.15,141.83h26.5c-.19-1.83-.46-3.27-.6-4.29-.64-4.73-12.53-87.83-12.53-87.83a13.3,13.3,0,0,0-14.83-11,13.46,13.46,0,0,0-11.15,14.71Z"/><path class="cls-5" d="M100.43,134.43c-5.72.82-10.39-1.83-11.28-6.3l-15.79,2.25A20,20,0,0,0,79.26,142H117c6.43-4.29,10.34-10.65,9.23-18.22-1.53-10.41-9.46-14.37-16-13.88l-.12-.82c4.86-1.29,11.24-6.79,9.85-16.18-1.59-10.45-13.25-16-27.1-14C77,81.19,69,90.68,70.3,103l16-2.29c-.44-3.79,2.14-8.21,7.56-9,4.94-.71,8.91,1.84,9.46,5.72.61,4.26-2.25,7.78-7.53,8.54l-7.07,1,1.8,12.59L98,118.57c6.35-.91,10.25,2.19,10.86,6.51C109.48,129.58,106.29,133.59,100.43,134.43Z"/><path class="cls-5" d="M27.46,142H54L45,78.77c-5.27-36.93,30.29-57,30.38-57.09L63.71,23.34c-5.37.77-18.49,1.36-33.63,21.54s-11.64,33.52-11,38.25C19.46,86,24,117.53,27.46,142Z"/></svg>