<?xml version="1.0" encoding="UTF-8" standalone="no"?>
<svg width="40px" height="40px" viewBox="0 0 40 40" version="1.1" xmlns="http://www.w3.org/2000/svg" xmlns:xlink="http://www.w3.org/1999/xlink">
    <!-- Generator: Sketch 41.1 (35376) - http://www.bohemiancoding.com/sketch -->
    <title>Group 15</title>
    <desc>Created with Sketch.</desc>
    <defs></defs>
    <g id="Page-1" stroke="none" stroke-width="1" fill="none" fill-rule="evenodd">
        <g id="Nytt-Mål-Popup" transform="translate(-425.000000, -743.000000)">
            <g id="Huvudmål-max" transform="translate(256.000000, 160.000000)">
                <g id="Group-21" transform="translate(169.000000, 583.000000)">
                    <g id="Group-17">
                        <g id="Group-19">
                            <g id="Group-16">
                                <g id="Group-15">
                                    <circle id="Oval-2-Copy-2" fill="#E2464A" cx="20" cy="20" r="20"></circle>
                                    <g id="PlusiconSetMilegaAsset-4-Copy-2" transform="translate(20.000000, 20.000000) rotate(-315.000000) translate(-20.000000, -20.000000) translate(7.000000, 7.000000)">
                                        <g id="PlusiconSetMilegaAsset-4" transform="translate(-0.000000, -0.000000)">
                                            <g id="Layer_2">
                                                <g id="Lager_1">
                                                    <g id="plus">
                                                        <path d="M16.4824574,14.2659016 L24.6799123,14.2659016 C25.3333887,14.243503 25.855963,13.7163393 25.8714152,13.0639344 C25.8635311,12.4083456 25.3366597,11.8768469 24.6799123,11.8619672 L16.5422461,11.8619672 C16.1045076,11.8619672 14.8489453,11.7213115 13.2111626,13.3537705 C11.5733799,14.9862295 11.6908219,16.1839344 11.6908219,16.6804918 L11.6908219,17.7460656 C11.6908219,17.7460656 13.0595556,14.2659016 16.4824574,14.2659016 Z" id="Shape" fill="#FFFFFF"></path>
                                                        <path d="M14.1378871,15.4401639 C12.9357076,16.3501639 11.6929572,17.8398361 11.6929572,19.8196721 L11.6929572,24.7852459 C11.6826773,25.1098806 11.807824,25.4242187 12.0385449,25.6532779 C12.2692659,25.8823371 12.5848739,26.0055794 12.9100839,25.9936066 C13.5680193,25.9673769 14.0989042,25.4476632 14.1378871,24.7916393 L14.1378871,15.4401639 Z" id="Shape" fill="#EEF2F2"></path>
                                                        <path d="M9.39536373,11.9472131 L1.19150295,11.9472131 C0.538026538,11.9696117 0.015452224,12.4967755 1.61648472e-13,13.1491803 C0.00788406897,13.8047692 0.534755547,14.3362678 1.19150295,14.3511475 L9.32916912,14.3511475 C9.76690766,14.3511475 11.0224699,14.4918033 12.6602526,12.8593443 C14.2980353,11.2268852 14.178458,10.0291803 14.178458,9.53262295 L14.178458,8.46704918 C14.178458,8.46704918 12.8118596,11.9472131 9.39536373,11.9472131 Z" id="Shape" fill="#FFFFFF"></path>
                                                        <path d="M11.7313928,1.42147541 L11.7313928,10.7729508 C12.9357076,9.86295082 14.178458,8.37327869 14.178458,6.39344262 L14.178458,1.42786885 C14.1905581,1.10214381 14.0662153,0.786099875 13.8352846,0.555619239 C13.6043538,0.325138602 13.2876926,0.201038274 12.9613313,0.213114754 C12.3002505,0.238553438 11.7672881,0.762165596 11.7313928,1.42147541 Z" id="Shape" fill="#EEF2F2"></path>
                                                    </g>
                                                </g>
                                            </g>
                                        </g>
                                    </g>
                                </g>
                            </g>
                        </g>
                    </g>
                </g>
            </g>
        </g>
    </g>
</svg>