<?xml version="1.0" encoding="UTF-8"?>
<svg width="31px" height="33px" viewBox="0 0 31 33" version="1.1" xmlns="http://www.w3.org/2000/svg" xmlns:xlink="http://www.w3.org/1999/xlink">
    <!-- Generator: Sketch 40.3 (33839) - http://www.bohemiancoding.com/sketch -->
    <title>icn_mål</title>
    <desc>Created with Sketch.</desc>
    <defs></defs>
    <g id="Page-1" stroke="none" stroke-width="1" fill="none" fill-rule="evenodd">
        <g id="LandingPage" transform="translate(-634.000000, -24.000000)">
            <g id="nav">
                <g id="nav_links" transform="translate(485.000000, 23.000000)">
                    <g id="mål" transform="translate(149.000000, 1.000000)">
                        <g id="icn_mål">
                            <path d="M15.6982875,32.4876475 C19.9229935,32.4876475 23.3477944,28.9987798 23.3477944,24.6950433 C23.3477944,20.3913068 19.9229935,16.902439 15.6982875,16.902439 C11.4735814,16.902439 8.04878049,20.3913068 8.04878049,24.6950433 C8.04878049,28.9987798 11.4735814,32.4876475 15.6982875,32.4876475 Z M15.6982875,20.845476 C17.7848601,20.8473875 19.475016,22.571743 19.4737653,24.6973491 C19.4725147,26.8229552 17.7803309,28.5452454 15.6937575,28.5446088 C13.6071841,28.5439722 11.9160132,26.8206497 11.9160124,24.6950433 C11.916012,23.6734745 12.3146089,22.693797 13.024021,21.9717635 C13.733433,21.24973 14.6954784,20.8445573 15.6982875,20.845476 L15.6982875,20.845476 Z" id="Shape" fill="#7AC2BB"></path>
                            <path d="M12.7129301,10.4789929 L3.3099155,0.896616837 C2.53890918,0.156282335 1.33511923,0.156282335 0.564112909,0.896616837 C-0.174731144,1.67710991 -0.174731144,2.91329135 0.564112909,3.69378442 L9.89916207,13.2034618 C10.3987078,13.7123525 11.6798558,15.3498033 15.4349448,15.3498033 C19.1900337,15.3498033 20.4304025,13.8127459 21.0013119,13.2311566 L22.2382824,11.9710464 C22.2382824,11.9710464 16.6515256,14.4774194 12.7129301,10.4789929 Z" id="Shape" fill="#9BD1CE"></path>
                            <path d="M27.5022034,0.889693155 L16.7500755,11.8429583 C19.1764406,12.1891424 22.3164426,11.8914241 24.5966821,9.56506688 L30.3057766,3.74917388 C30.6918168,3.38189501 30.9109705,2.86791622 30.9109705,2.32981904 C30.9109705,1.79172186 30.6918168,1.27774307 30.3057766,0.910464201 C29.5195382,0.159875092 28.2990754,0.150832956 27.5022034,0.889693155 L27.5022034,0.889693155 Z" id="Shape" fill="#7AC2BB"></path>
                        </g>
                    </g>
                </g>
            </g>
        </g>
    </g>
</svg>