<?xml version="1.0" encoding="UTF-8"?>
<svg width="33px" height="33px" viewBox="0 0 33 33" version="1.1" xmlns="http://www.w3.org/2000/svg" xmlns:xlink="http://www.w3.org/1999/xlink">
    <!-- Generator: Sketch 40.3 (33839) - http://www.bohemiancoding.com/sketch -->
    <title>icn_minkurs</title>
    <desc>Created with Sketch.</desc>
    <defs></defs>
    <g id="Page-1" stroke="none" stroke-width="1" fill="none" fill-rule="evenodd">
        <g id="LandingPage" transform="translate(-861.000000, -23.000000)">
            <g id="nav">
                <g id="nav_links" transform="translate(485.000000, 23.000000)">
                    <g id="minkurs" transform="translate(376.000000, 0.000000)">
                        <g id="icn_minkurs">
                            <path d="M16.4621935,12.0641902 C14.2580087,12.0641902 12.4717043,10.2775272 12.4717043,8.07370109 C12.4717043,5.869875 14.2580087,4.08321196 16.4621935,4.08321196 C18.6663783,4.08321196 20.4526826,5.869875 20.4526826,8.07370109 C20.4526826,10.2775272 18.6663783,12.0641902 16.4621935,12.0641902 M16.4621935,0.000179347826 C12.0032478,0.000179347826 8.38831304,3.61475543 8.38831304,8.07370109 C8.38831304,12.5326467 12.0032478,16.1475815 16.4621935,16.1475815 C20.9214978,16.1475815 24.5360739,12.5326467 24.5360739,8.07370109 C24.5360739,3.61475543 20.9214978,0.000179347826 16.4621935,0.000179347826" id="Fill-6" fill="#7AC2BB"></path>
                            <path d="M19.2063587,22.4803891 L29.1325435,32.4065739 C29.8915435,33.1655739 31.2563804,33.1673674 32.0322391,32.3915087 C32.8335652,31.5898239 32.8059457,30.2511717 32.0469457,29.4921717 C32.0469457,29.4921717 22.7273152,20.1660848 22.1939348,19.6395196 C21.6601957,19.113313 20.3136522,17.4166826 16.3511413,17.4166826 C12.3886304,17.4166826 11.0775978,19.0089326 10.4749891,19.6111826 C10.0230326,20.0631391 10.0736087,20.0129217 9.17005435,20.9168348 C9.18547826,20.9100196 15.0627065,18.3370957 19.2063587,22.4803891" id="Fill-1" fill="#9BD1CE"></path>
                            <path d="M3.59714348,32.4133533 L14.9434043,21.0674511 C12.3830348,20.7159293 9.06940435,21.0172337 6.65968696,23.4269511 C3.88158913,26.2046902 0.635034783,29.4512446 0.635034783,29.4512446 C-0.266008696,30.352288 -0.1584,31.5901467 0.643284783,32.3914728 C1.45465435,33.2032011 2.87365435,33.1368424 3.59714348,32.4133533" id="Fill-3" fill="#7AC2BB"></path>
                        </g>
                    </g>
                </g>
            </g>
        </g>
    </g>
</svg>