<?xml version="1.0" encoding="UTF-8"?>
<svg width="40px" height="40px" viewBox="0 0 40 40" version="1.1" xmlns="http://www.w3.org/2000/svg" xmlns:xlink="http://www.w3.org/1999/xlink">
    <!-- Generator: Sketch 40.3 (33839) - http://www.bohemiancoding.com/sketch -->
    <title>icn_greencircle_reflection</title>
    <desc>Created with Sketch.</desc>
    <defs></defs>
    <g id="Page-1" stroke="none" stroke-width="1" fill="none" fill-rule="evenodd">
        <g id="Mål" transform="translate(-744.000000, -1322.000000)">
            <g id="MålDropdown" transform="translate(512.000000, 80.000000)">
                <g id="Huvudmål-max-Copy" transform="translate(0.000000, 661.000000)">
                    <g id="Group-21" transform="translate(116.000000, 580.000000)">
                        <g id="Group-17">
                            <g id="Group-19" transform="translate(102.000000, 0.000000)">
                                <g id="Group-16" transform="translate(14.000000, 0.000000)">
                                    <g id="ReflectioniconSetMilegaAsset-10-Copy-2">
                                        <g id="ReflectioniconSetMilegaAsset-10">
                                            <g id="Layer_2">
                                                <g id="Lager_1">
                                                    <g id="icn_greencircle_reflection" transform="translate(0.000000, 0.739216)">
                                                        <ellipse id="Oval-2" fill="#7AC2BB" cx="20" cy="20.2607843" rx="20" ry="20"></ellipse>
                                                        <path d="M22.2869277,11.0078431 L29.5429552,18.3246 C30.1384207,18.8908671 31.067645,18.8908671 31.6631105,18.3246 C32.2339831,17.7274019 32.2339831,16.7809785 31.6631105,16.1837804 C31.6631105,16.1837804 24.8622855,9.28919216 24.4714051,8.90199608 C24.0805246,8.5148 23.0909539,7.26078431 20.2014073,7.26078431 C17.3118607,7.26078431 16.3445553,8.43736078 15.916566,8.88201176 L14.9517345,9.84375686 C14.9517345,9.84375686 19.2588412,7.94025098 22.2869277,11.0078431 Z" id="Shape" fill="#EEF2F2"></path>
                                                        <path d="M19.1722537,9.95616863 C17.2994911,9.70636471 14.8775167,9.91869804 13.1160808,11.7047961 L8.71249094,16.1438118 C8.41430898,16.4244756 8.24498213,16.8175955 8.24498213,17.2292098 C8.24498213,17.6408241 8.41430898,18.033944 8.71249094,18.3146078 C9.31986618,18.8886124 10.2620631,18.8951362 10.8771769,18.3295961 L19.1722537,9.95616863 Z" id="Shape" fill="#FFFFFF"></path>
                                                        <path d="M22.2869277,28.8563333 L29.5429552,21.5295843 C30.1384207,20.9633173 31.067645,20.9633173 31.6631105,21.5295843 C32.2339831,22.1267824 32.2339831,23.0732058 31.6631105,23.6704039 C31.6631105,23.6704039 24.8622855,30.5649922 24.4714051,30.9521882 C24.0805246,31.3393843 23.0959017,32.5934 20.2014073,32.5934 C17.3069129,32.5934 16.3445553,31.4193216 15.916566,30.9721725 L14.9517345,30.0104275 C14.9517345,30.0104275 19.2588412,31.9139333 22.2869277,28.8563333 Z" id="Shape" fill="#EEF2F2"></path>
                                                        <path d="M10.8771769,21.5245882 L19.1722537,29.8980157 C17.2994911,30.1478196 14.8775167,29.9354863 13.1160808,28.1493882 L8.71249094,23.7103725 C8.41430898,23.4297087 8.24498213,23.0365888 8.24498213,22.6249745 C8.24498213,22.2133602 8.41430898,21.8202403 8.71249094,21.5395765 C9.31986618,20.9655719 10.2620631,20.9590482 10.8771769,21.5245882 L10.8771769,21.5245882 Z" id="Shape" fill="#FFFFFF"></path>
                                                        <path d="M20.2162509,14.0054902 C16.9565524,14.0054905 14.3139171,16.67351 14.3134619,19.9649794 C14.3130067,23.2564489 16.9549039,25.9252135 20.2146023,25.9261331 C23.4743007,25.9270527 26.1176742,23.259779 26.1190404,19.9683098 C26.1196967,18.3871015 25.4980872,16.8704285 24.3910283,15.7521111 C23.2839694,14.6337936 21.7821967,14.0054901 20.2162509,14.0054902 L20.2162509,14.0054902 Z M21.6536024,21.1323961 C20.0430918,21.1611036 18.7144215,19.8661659 18.6858208,18.2399614 C18.6572201,16.6137569 19.9395178,15.2719997 21.5500223,15.2429483 C23.1605269,15.2138968 24.4894684,16.5085507 24.5184097,18.134749 C24.532976,18.9163257 24.2392256,19.6716875 23.7018727,20.2344258 C23.1645199,20.797164 22.4276516,21.1211088 21.6536024,21.1348941 L21.6536024,21.1323961 Z" id="Shape" fill="#FFFFFF"></path>
                                                    </g>
                                                </g>
                                            </g>
                                        </g>
                                    </g>
                                </g>
                            </g>
                        </g>
                    </g>
                </g>
            </g>
        </g>
    </g>
</svg>