<?xml version="1.0" encoding="UTF-8"?>
<svg width="54px" height="54px" viewBox="0 0 54 54" version="1.1" xmlns="http://www.w3.org/2000/svg" xmlns:xlink="http://www.w3.org/1999/xlink">
    <!-- Generator: Sketch 40.3 (33839) - http://www.bohemiancoding.com/sketch -->
    <title>icn_datum_bend</title>
    <desc>Created with Sketch.</desc>
    <defs></defs>
    <g id="Page-1" stroke="none" stroke-width="1" fill="none" fill-rule="evenodd">
        <g id="LandingPage" transform="translate(-109.000000, -486.000000)">
            <g id="Mål" transform="translate(109.000000, 248.000000)">
                <g id="bar_delmål2" transform="translate(0.000000, 238.000000)">
                    <g id="icn_datum" transform="translate(0.631579, 0.631579)">
                        <g id="icn_datum_bend">
                            <path d="M8.94736842,17.7942105 L8.94736842,48.1526316 C8.86480846,50.5707811 6.91196818,52.5056228 4.49315789,52.5657895 C2.06799758,52.5259838 0.107429627,50.5774995 0.0526315789,48.1526316 L0.0526315789,18.0473684 C0.0526315789,16.4531579 -0.474210526,11.7731579 5.58789474,5.73157895 C11.65,-0.31 16.0973684,0.0526315789 17.9378947,0.0526315789 L21.9473684,0.0526315789 C21.9473684,0.0526315789 8.94736842,5.12263158 8.94736842,17.7942105 Z" id="Shape" fill="#9BD1CE"></path>
                            <path d="M48.0294737,9.11842105 L13.3331579,9.11842105 C16.7063158,4.66421053 22.2347368,0.0526315789 29.6036842,0.0526315789 L48.0294737,0.0526315789 C49.2349989,0.0157200782 50.4017733,0.480792018 51.2513589,1.33686307 C52.1009446,2.19293413 52.5571304,3.36321141 52.5110526,4.56842105 C52.4253003,7.01870629 50.4781785,8.9955552 48.0294737,9.11842105 L48.0294737,9.11842105 Z" id="Shape" fill="#7AC2BB"></path>
                        </g>
                    </g>
                </g>
            </g>
        </g>
    </g>
</svg>