<?xml version="1.0" encoding="UTF-8"?>
<svg width="40px" height="40px" viewBox="0 0 40 40" version="1.1" xmlns="http://www.w3.org/2000/svg" xmlns:xlink="http://www.w3.org/1999/xlink">
    <!-- Generator: Sketch 40.3 (33839) - http://www.bohemiancoding.com/sketch -->
    <title>icn_greycircle_plus</title>
    <desc>Created with Sketch.</desc>
    <defs></defs>
    <g id="Page-1" stroke="none" stroke-width="1" fill="none" fill-rule="evenodd">
        <g id="Mål" transform="translate(-638.000000, -1322.000000)">
            <g id="MålDropdown" transform="translate(512.000000, 80.000000)">
                <g id="Huvudmål-max-Copy" transform="translate(0.000000, 661.000000)">
                    <g id="Group-21" transform="translate(116.000000, 581.000000)">
                        <g id="Group-17">
                            <g id="Group-18">
                                <g id="Group-13" transform="translate(10.000000, 0.000000)">
                                    <g id="PlusiconSetMilegaAsset-4-Copy">
                                        <g id="PlusiconSetMilegaAsset-4">
                                            <g id="Layer_2">
                                                <g id="Lager_1">
                                                    <g id="icn_greycircle_plus">
                                                        <circle id="Oval-2-Copy" fill="#4F5758" cx="20" cy="20" r="20"></circle>
                                                        <path d="M23.4824574,21.2659016 L31.6799123,21.2659016 C32.3333887,21.243503 32.855963,20.7163393 32.8714152,20.0639344 C32.8635311,19.4083456 32.3366597,18.8768469 31.6799123,18.8619672 L23.5422461,18.8619672 C23.1045076,18.8619672 21.8489453,18.7213115 20.2111626,20.3537705 C18.5733799,21.9862295 18.6908219,23.1839344 18.6908219,23.6804918 L18.6908219,24.7460656 C18.6908219,24.7460656 20.0595556,21.2659016 23.4824574,21.2659016 Z" id="Shape" fill="#FFFFFF"></path>
                                                        <path d="M21.1378871,22.4401639 C19.9357076,23.3501639 18.6929572,24.8398361 18.6929572,26.8196721 L18.6929572,31.7852459 C18.6826773,32.1098806 18.807824,32.4242187 19.0385449,32.6532779 C19.2692659,32.8823371 19.5848739,33.0055794 19.9100839,32.9936066 C20.5680193,32.9673769 21.0989042,32.4476632 21.1378871,31.7916393 L21.1378871,22.4401639 Z" id="Shape" fill="#EEF2F2"></path>
                                                        <path d="M16.3953637,18.9472131 L8.19150295,18.9472131 C7.53802654,18.9696117 7.01545222,19.4967755 7,20.1491803 C7.00788407,20.8047692 7.53475555,21.3362678 8.19150295,21.3511475 L16.3291691,21.3511475 C16.7669077,21.3511475 18.0224699,21.4918033 19.6602526,19.8593443 C21.2980353,18.2268852 21.178458,17.0291803 21.178458,16.532623 L21.178458,15.4670492 C21.178458,15.4670492 19.8118596,18.9472131 16.3953637,18.9472131 Z" id="Shape" fill="#FFFFFF"></path>
                                                        <path d="M18.7313928,8.42147541 L18.7313928,17.7729508 C19.9357076,16.8629508 21.178458,15.3732787 21.178458,13.3934426 L21.178458,8.42786885 C21.1905581,8.10214381 21.0662153,7.78609988 20.8352846,7.55561924 C20.6043538,7.3251386 20.2876926,7.20103827 19.9613313,7.21311475 C19.3002505,7.23855344 18.7672881,7.7621656 18.7313928,8.42147541 Z" id="Shape" fill="#EEF2F2"></path>
                                                    </g>
                                                </g>
                                            </g>
                                        </g>
                                    </g>
                                </g>
                            </g>
                        </g>
                    </g>
                </g>
            </g>
        </g>
    </g>
</svg>