<?xml version="1.0" encoding="UTF-8"?>
<svg width="33px" height="33px" viewBox="0 0 33 33" version="1.1" xmlns="http://www.w3.org/2000/svg" xmlns:xlink="http://www.w3.org/1999/xlink">
    <!-- Generator: Sketch 40.3 (33839) - http://www.bohemiancoding.com/sketch -->
    <title>icn_plus</title>
    <desc>Created with Sketch.</desc>
    <defs></defs>
    <g id="Page-1" stroke="none" stroke-width="1" fill="none" fill-rule="evenodd">
        <g id="LandingPage" transform="translate(-485.000000, -24.000000)">
            <g id="nav">
                <g id="nav_links" transform="translate(485.000000, 23.000000)">
                    <g id="nyttmål" transform="translate(0.000000, 1.000000)">
                        <g id="icn_plus">
                            <path d="M20.8792623,18.1067213 L31.2634426,18.1067213 C32.0912382,18.0782923 32.7532127,17.4091998 32.7727869,16.5811475 C32.7627997,15.749054 32.0953817,15.0744595 31.2634426,15.0555738 L20.955,15.0555738 C20.4004918,15.0555738 18.81,14.8770492 16.7353279,16.9490164 C14.6606557,19.0209836 14.8094262,20.5411475 14.8094262,21.1713934 L14.8094262,22.5238525 C14.8094262,22.5238525 16.5432787,18.1067213 20.8792623,18.1067213 Z" id="Shape" fill="#9BD1CE"></path>
                            <path d="M17.9092623,31.4663115 L17.9092623,19.5971311 C16.3863934,20.7521311 14.8121311,22.6428689 14.8121311,25.1557377 L14.8121311,31.4581967 C14.7991089,31.870233 14.9576394,32.2692007 15.2499067,32.5599297 C15.5421739,32.8506587 15.9419726,33.0070816 16.3539344,32.9918852 C17.1873785,32.9585938 17.8598804,32.2989571 17.9092623,31.4663115 L17.9092623,31.4663115 Z" id="Shape" fill="#7AC2BB"></path>
                            <path d="M11.9016393,15.1637705 L1.50934426,15.1637705 C0.681548686,15.1921995 0.0195742073,15.861292 0,16.6893443 C0.00998719668,17.5214378 0.677405137,18.1960323 1.50934426,18.214918 L11.8177869,18.214918 C12.3722951,18.214918 13.9627869,18.3934426 16.037459,16.3214754 C18.1121311,14.2495082 17.9606557,12.7293443 17.9606557,12.0990984 L17.9606557,10.7466393 C17.9606557,10.7466393 16.2295082,15.1637705 11.9016393,15.1637705 Z" id="Shape" fill="#9BD1CE"></path>
                            <path d="M14.8608197,1.80418033 L14.8608197,13.6733607 C16.3863934,12.5183607 17.9606557,10.627623 17.9606557,8.1147541 L17.9606557,1.81229508 C17.9759836,1.39887483 17.8184716,0.997742149 17.5259385,0.705209034 C17.2334054,0.412675918 16.8322727,0.255163963 16.4188525,0.270491803 C15.5814239,0.302779363 14.9062903,0.967364026 14.8608197,1.80418033 Z" id="Shape" fill="#7AC2BB"></path>
                        </g>
                    </g>
                </g>
            </g>
        </g>
    </g>
</svg>