<svg xmlns="http://www.w3.org/2000/svg" xmlns:xlink="http://www.w3.org/1999/xlink" viewBox="0 0 158.75 38.08"><defs><style>.cls-1,.cls-2{fill:none;}.cls-1{clip-rule:evenodd;}.cls-3{clip-path:url(#clip-path);}.cls-4{clip-path:url(#clip-path-2);}.cls-5{fill:#7ac2bb;}</style><clipPath id="clip-path" transform="translate(0 -3.31)"><path class="cls-1" d="M153.43,16a1,1,0,0,1,.31.74V18a1.07,1.07,0,0,1-1.05,1.05h-2.26a4.52,4.52,0,0,0-3.33,1.15,4.52,4.52,0,0,0-1.15,3.33V34.95A1.07,1.07,0,0,1,144.89,36h-1.44a1.07,1.07,0,0,1-1.05-1.05V16.77a1.07,1.07,0,0,1,1.05-1.05h1.44a1.07,1.07,0,0,1,1.05,1.05V18a4.88,4.88,0,0,1,1.87-1.72,6.38,6.38,0,0,1,2.85-.55h2A1,1,0,0,1,153.43,16Zm-19.27,8v-.12a5,5,0,0,0-1.5-3.8,5.57,5.57,0,0,0-4-1.42,5.49,5.49,0,0,0-3.84,1.44,5,5,0,0,0-1.62,3.78V24Zm1.09-6a10.3,10.3,0,0,1,2.42,7.22v1.05a1.07,1.07,0,0,1-1.05,1.05H123.21v.23a5.63,5.63,0,0,0,1.58,4A5.33,5.33,0,0,0,128.67,33a7.24,7.24,0,0,0,3-.51,6.21,6.21,0,0,0,1.93-1.44,2.09,2.09,0,0,1,.57-.43,1.65,1.65,0,0,1,.68-.12H136a1.06,1.06,0,0,1,.78.31.89.89,0,0,1,.27.74,4.27,4.27,0,0,1-1.15,2.16,7.64,7.64,0,0,1-2.85,1.87,11.63,11.63,0,0,1-4.43.76,8.58,8.58,0,0,1-4.45-1.15,8.47,8.47,0,0,1-3.1-3.18,11.22,11.22,0,0,1-1.38-4.56q-.08-1.17-.08-1.79t.08-1.79a10.47,10.47,0,0,1,1.38-4.37,8.54,8.54,0,0,1,3.08-3.08,8.67,8.67,0,0,1,4.47-1.13A8.48,8.48,0,0,1,135.26,18ZM109.64,20.2a5.43,5.43,0,0,0-4-1.52,5.21,5.21,0,0,0-4,1.64,6.92,6.92,0,0,0-1.66,4.45l0,1.09,0,1.09a6.92,6.92,0,0,0,1.66,4.45,5.21,5.21,0,0,0,4,1.64,5.5,5.5,0,0,0,4-1.5,5.68,5.68,0,0,0,1.68-4q0-.39,0-1.56t0-1.52A6.14,6.14,0,0,0,109.64,20.2Zm1.64-10.84a1.07,1.07,0,0,1,1.05-1.05h1.44a1.07,1.07,0,0,1,1.05,1.05V34.95A1.07,1.07,0,0,1,113.77,36h-1.44a1.07,1.07,0,0,1-1.05-1.05V33.74a7.07,7.07,0,0,1-6,2.65,8.65,8.65,0,0,1-4.39-1.13A8.41,8.41,0,0,1,97.68,32a10.76,10.76,0,0,1-1.31-4.91l0-1.29,0-1.25a10.63,10.63,0,0,1,1.31-4.89,8.49,8.49,0,0,1,3.14-3.22,8.62,8.62,0,0,1,4.41-1.13,8.1,8.1,0,0,1,3.69.76A6.69,6.69,0,0,1,111.27,18ZM88.11,26.29l-4.6.74a10.53,10.53,0,0,0-3.94,1.27,2.56,2.56,0,0,0-1.4,2.2,2.29,2.29,0,0,0,.9,1.75,4.07,4.07,0,0,0,2.73.78,6.51,6.51,0,0,0,4.56-1.6,5.38,5.38,0,0,0,1.75-4.17Zm0-3.12v-.51a3.58,3.58,0,0,0-1.27-2.94,5,5,0,0,0-3.3-1,4.75,4.75,0,0,0-2.44.53,5.88,5.88,0,0,0-1.66,1.58,1.28,1.28,0,0,1-.51.43,1.92,1.92,0,0,1-.74.12H77a1.08,1.08,0,0,1-.76-.31.87.87,0,0,1-.29-.74A4.12,4.12,0,0,1,77.13,18a7.76,7.76,0,0,1,2.75-1.89,9.15,9.15,0,0,1,3.67-.74,8.42,8.42,0,0,1,5.87,2,7.28,7.28,0,0,1,2.24,5.69V34.95A1.07,1.07,0,0,1,90.6,36H89.16a1.07,1.07,0,0,1-1.05-1.05v-1.6a4.56,4.56,0,0,1-2.65,2.22,10.76,10.76,0,0,1-4.06.82,8.36,8.36,0,0,1-3.55-.72,5.67,5.67,0,0,1-2.4-2,4.92,4.92,0,0,1-.84-2.81,5.43,5.43,0,0,1,2.18-4.58,12.88,12.88,0,0,1,5.81-2.24ZM67.83,24v-.12a5,5,0,0,0-1.5-3.8,5.57,5.57,0,0,0-4-1.42,5.49,5.49,0,0,0-3.84,1.44,5,5,0,0,0-1.62,3.78V24Zm1.09-6a10.3,10.3,0,0,1,2.42,7.22v1.05a1.07,1.07,0,0,1-1.05,1.05H56.87v.23a5.63,5.63,0,0,0,1.58,4A5.33,5.33,0,0,0,62.33,33a7.24,7.24,0,0,0,3-.51,6.21,6.21,0,0,0,1.93-1.44,2.09,2.09,0,0,1,.57-.43,1.65,1.65,0,0,1,.68-.12H69.7a1.06,1.06,0,0,1,.78.31.89.89,0,0,1,.27.74,4.27,4.27,0,0,1-1.15,2.16,7.64,7.64,0,0,1-2.85,1.87,11.63,11.63,0,0,1-4.43.76,8.58,8.58,0,0,1-4.45-1.15,8.47,8.47,0,0,1-3.1-3.18A11.22,11.22,0,0,1,53.4,27.5q-.08-1.17-.08-1.79t.08-1.79a10.47,10.47,0,0,1,1.38-4.37,8.54,8.54,0,0,1,3.08-3.08,8.67,8.67,0,0,1,4.47-1.13A8.48,8.48,0,0,1,68.92,18ZM48.17,35.69a1,1,0,0,1-.74.31H46a1.07,1.07,0,0,1-1.05-1.05V9.36A1.07,1.07,0,0,1,46,8.31h1.44a1.07,1.07,0,0,1,1.05,1.05V34.95A1,1,0,0,1,48.17,35.69Zm-9.4,0A1,1,0,0,1,38,36H36.59a1.07,1.07,0,0,1-1.05-1.05V16.77a1.07,1.07,0,0,1,1.05-1.05H38a1.07,1.07,0,0,1,1.05,1.05V34.95A1,1,0,0,1,38.77,35.69Zm.39-23.36a1,1,0,0,1-.74.31H36.2a1.07,1.07,0,0,1-1.05-1.05V9.36A1.07,1.07,0,0,1,36.2,8.31h2.22a1.07,1.07,0,0,1,1.05,1.05v2.22A1,1,0,0,1,39.16,12.33ZM25,9.95A1.9,1.9,0,0,1,26.72,8.7h1.48a1.07,1.07,0,0,1,1.05,1.05V34.95A1.07,1.07,0,0,1,28.21,36h-1.6a1.07,1.07,0,0,1-1.05-1.05V16.46L19.47,28.2a2.91,2.91,0,0,1-.68.94,1.37,1.37,0,0,1-.92.31H16.39a1.37,1.37,0,0,1-.92-.31,2.91,2.91,0,0,1-.68-.94L8.71,16.46V34.95A1.07,1.07,0,0,1,7.65,36H6.05A1.07,1.07,0,0,1,5,34.95V9.75A1.07,1.07,0,0,1,6.05,8.7H7.53A1.9,1.9,0,0,1,9.25,9.95L17.13,25.2Z"/></clipPath><clipPath id="clip-path-2" transform="translate(0 -3.31)"><rect class="cls-2" x="1.65" width="153" height="46"/></clipPath></defs><title>LogoFINALAsset 19</title><g id="Layer_2" data-name="Layer 2"><g id="Lager_1" data-name="Lager 1"><g class="cls-3"><g class="cls-4"><rect class="cls-5" width="158.75" height="38.08"/></g></g></g></g></svg>