<?xml version="1.0" encoding="UTF-8" standalone="no"?>
<svg width="40px" height="40px" viewBox="0 0 40 40" version="1.1" xmlns="http://www.w3.org/2000/svg" xmlns:xlink="http://www.w3.org/1999/xlink">
    <!-- Generator: Sketch 41.1 (35376) - http://www.bohemiancoding.com/sketch -->
    <title>Group 14</title>
    <desc>Created with Sketch.</desc>
    <defs></defs>
    <g id="Page-1" stroke="none" stroke-width="1" fill="none" fill-rule="evenodd">
        <g id="Nytt-Mål-Popup" transform="translate(-559.000000, -743.000000)">
            <g id="Huvudmål-max" transform="translate(256.000000, 160.000000)">
                <g id="Group-21" transform="translate(169.000000, 583.000000)">
                    <g id="Group-17">
                        <g id="Group-19">
                            <g id="Group-16">
                                <g id="Group-14" transform="translate(134.000000, 0.000000)">
                                    <g id="BockAsset-16">
                                        <ellipse id="Oval-2" fill="#7AC2BB" cx="20" cy="20" rx="20" ry="20"></ellipse>
                                        <g transform="translate(7.000000, 12.000000)" id="Layer_2" fill="#EEF2F2">
                                            <g>
                                                <g id="Lager_1">
                                                    <g id="pil">
                                                        <path d="M6.37938144,12.8659794 L2.7742268,9.27154639 C2.12690209,8.66156016 1.11639688,8.66156016 0.469072165,9.27154639 C-0.151836106,9.91449704 -0.151836106,10.9337504 0.469072165,11.576701 C0.469072165,11.576701 3.58103093,14.7127835 4.00453608,15.1309278 C4.42804124,15.5490722 5.49752577,16.8865979 8.64701031,16.8865979 C11.7964948,16.8865979 12.8391753,15.6214433 13.3162887,15.1416495 L14.3536082,14.1043299 C14.3536082,14.1043299 9.67092784,16.1682474 6.37938144,12.8659794 Z" id="Shape"></path>
                                                        <path d="M23.0515464,0.715670103 L9.76742268,13.9971134 C11.8018557,14.2651546 14.436701,14.0373196 16.3505155,12.1208247 L25.3995876,3.07175258 C25.7209146,2.76797029 25.9029848,2.34528581 25.9029848,1.90309278 C25.9029848,1.46089976 25.7209146,1.03821527 25.3995876,0.73443299 C24.7408155,0.118678722 23.7200746,0.110522117 23.0515464,0.715670103 L23.0515464,0.715670103 Z" id="Shape"></path>
                                                    </g>
                                                </g>
                                            </g>
                                        </g>
                                    </g>
                                </g>
                            </g>
                        </g>
                    </g>
                </g>
            </g>
        </g>
    </g>
</svg>